<svg xmlns="http://www.w3.org/2000/svg" viewBox="0 0 652.75 134.32"><defs><style>.cls-1{fill:#0859de;}.cls-2{fill:#6422cd;}</style></defs><g id="Layer_2" data-name="Layer 2"><g id="Layer_1-2" data-name="Layer 1"><path class="cls-1" d="M88.89,19.4V127.89a4.27,4.27,0,0,1-4.29,4.24H82.35a4.27,4.27,0,0,1-4.29-4.24h0a4.29,4.29,0,0,0-7.1-3.18,43.43,43.43,0,0,1-8.4,5.4,42.3,42.3,0,0,1-18.79,4.19,41.92,41.92,0,0,1-31-13A42.93,42.93,0,0,1,.12,93.54a45.35,45.35,0,0,1,15.25-37.3A42.17,42.17,0,0,1,44.09,45.56a40.73,40.73,0,0,1,19,4.42,39.41,39.41,0,0,1,7.82,5.37,4.27,4.27,0,0,0,7.13-3.13V19.4a4.27,4.27,0,0,1,4.29-4.24H84.6A4.27,4.27,0,0,1,88.89,19.4ZM45,56a33.39,33.39,0,0,0-16.93,4.46A32.84,32.84,0,0,0,15.71,73a33.82,33.82,0,0,0,0,34.09,33.38,33.38,0,0,0,12.42,12.67,32.78,32.78,0,0,0,16.74,4.53A34.64,34.64,0,0,0,62,119.8a31.62,31.62,0,0,0,12.43-12.16,34.44,34.44,0,0,0,4.35-17.28q0-14.64-9.76-24.49A32.55,32.55,0,0,0,45,56Z"/><path class="cls-1" d="M188.72,106.39h0a5.27,5.27,0,0,1,2.09,7.46,45.46,45.46,0,0,1-7.72,9.36,41.86,41.86,0,0,1-13.43,8.26,47.46,47.46,0,0,1-16.88,2.83q-20.9,0-32.68-13.54t-11.78-30.6a44.8,44.8,0,0,1,10-28.62q12.63-16,33.85-16Q174,45.56,187,61.93q8.1,10.11,9.24,24.59a4,4,0,0,1-3.94,4.26H123.86a4,4,0,0,0-3.93,4.41,33,33,0,0,0,9.2,19.7,30.47,30.47,0,0,0,22.7,9.4,37,37,0,0,0,12.69-2.24,33.45,33.45,0,0,0,10.49-6,40.76,40.76,0,0,0,6.76-7.95A5.42,5.42,0,0,1,188.72,106.39ZM179,81.4a3.88,3.88,0,0,0,3.72-5.16,31,31,0,0,0-4.8-8.72,29.66,29.66,0,0,0-10-7.87A35.38,35.38,0,0,0,151.46,56a31.34,31.34,0,0,0-20.76,8,31.84,31.84,0,0,0-8.17,12.19,3.88,3.88,0,0,0,3.68,5.26Z"/><path class="cls-1" d="M215.85,47.74h0a5.31,5.31,0,0,1,4.82,3l22.38,48.05a5.34,5.34,0,0,0,9.66,0l22.09-48a5.31,5.31,0,0,1,4.84-3.07h.08a5.25,5.25,0,0,1,4.83,7.43l-35.64,77h-2L211,55.18A5.25,5.25,0,0,1,215.85,47.74Z"/><path class="cls-1" d="M442.93,47.74h0a5.18,5.18,0,0,1,4.78,3.13L467.86,98a5.21,5.21,0,0,0,9.53.07l22.4-50.37h2l22.61,50.52a5.21,5.21,0,0,0,9.51-.05l20.63-47.37a5.19,5.19,0,0,1,4.76-3.1h.1a5.13,5.13,0,0,1,4.76,7.17l-33.94,77.22h-2L505.61,82.19a5.21,5.21,0,0,0-9.47,0l-22.55,49.94h-2L438.16,54.88A5.13,5.13,0,0,1,442.93,47.74Z"/><path class="cls-1" d="M589,82.37c0-14.79,12.45-25.59,27.54-25.07C630.91,57.79,642,70,642,84.24v42.58a5.35,5.35,0,0,0,5.37,5.31h0a5.34,5.34,0,0,0,5.36-5.31V83.69c0-20.32-16.08-37.8-36.64-38.12a37,37,0,0,0-37.83,36.8v44.45a5.34,5.34,0,0,0,5.37,5.31h0a5.34,5.34,0,0,0,5.36-5.31Z"/><path class="cls-1" d="M264.65,34.58H130.36a5.32,5.32,0,1,1,0-10.61H264.65A5.32,5.32,0,1,1,264.65,34.58Z"/><path class="cls-2" d="M412.16,59.72c-8.63-9.38-19.64-14.13-32.73-14.13s-24.19,4.78-32.8,14.21a44.79,44.79,0,0,0,.66,61.25c8.29,8.8,19.1,13.27,32.14,13.27s23.78-4.47,32.07-13.27a44.89,44.89,0,0,0,.66-61.33Zm-10.23,52.06c-5.82,6.18-13.4,9.31-22.51,9.31s-16.74-3.13-22.56-9.31a31.41,31.41,0,0,1-.46-43,31.55,31.55,0,0,1,46-.06,31.51,31.51,0,0,1-.46,43.05Z"/><path class="cls-2" d="M637.34,35.11H290.53c-7.68.11-7.67-11.79,0-11.68H637.34C645,23.32,645,35.23,637.34,35.11Z"/><path class="cls-2" d="M308.42,126.3V5.69c-.12-7.59,12.35-7.58,12.23,0V126.3C320.76,133.85,308.3,133.91,308.42,126.3Z"/></g></g></svg>