<svg width="152" height="34" fill="none" xmlns="http://www.w3.org/2000/svg"><path d="M49.917 23.483c-.001-.247-.073-.488-.21-.697a1.35 1.35 0 0 0-.56-.484 8.992 8.992 0 0 0-2.472-.77c-3.774-.772-5.661-2.316-5.663-4.631a4.08 4.08 0 0 1 .456-1.902c.305-.591.75-1.104 1.298-1.499 1.168-.909 2.696-1.363 4.585-1.363 2.013 0 3.624.457 4.834 1.372.573.412 1.036.95 1.35 1.569.314.62.469 1.302.453 1.99h-4.23a1.908 1.908 0 0 0-.146-.783 1.966 1.966 0 0 0-.456-.663c-.4-.386-1.01-.58-1.832-.58a2.615 2.615 0 0 0-1.659.467c-.186.14-.336.32-.438.526a1.426 1.426 0 0 0-.147.66c0 .224.062.443.18.636.116.192.285.352.487.461a7.045 7.045 0 0 0 2.253.721 19.39 19.39 0 0 1 2.668.683c2.241.793 3.36 2.164 3.359 4.113a3.87 3.87 0 0 1-.481 1.923 4.044 4.044 0 0 1-1.382 1.464c-1.24.862-2.842 1.293-4.807 1.293a8.69 8.69 0 0 1-3.545-.686 5.937 5.937 0 0 1-2.428-1.881 4.268 4.268 0 0 1-.88-2.579h4.044c0 .32.075.638.22.926.145.29.357.542.618.741.607.413 1.34.617 2.082.58a3.181 3.181 0 0 0 1.842-.447c.191-.13.347-.305.453-.507.105-.203.158-.427.154-.653ZM65.965 27.708a4.483 4.483 0 0 1-.427-1.372c-.5.542-1.118.972-1.81 1.258a5.297 5.297 0 0 1-2.194.397 5.76 5.76 0 0 1-3.864-1.302 4.198 4.198 0 0 1-1.15-1.471 4.05 4.05 0 0 1-.382-1.805c0-1.621.623-2.866 1.868-3.734 1.246-.868 3.049-1.307 5.408-1.314h1.953v-.869a2.457 2.457 0 0 0-.565-1.696c-.378-.425-.97-.636-1.781-.636a2.587 2.587 0 0 0-1.68.495c-.2.166-.36.376-.464.61a1.62 1.62 0 0 0-.137.747h-4.25a4 4 0 0 1 .85-2.46 5.62 5.62 0 0 1 2.403-1.775 9.06 9.06 0 0 1 3.494-.64c1.957 0 3.51.475 4.657 1.422 1.147.947 1.722 2.278 1.724 3.991v6.629c0 1.453.21 2.55.631 3.293v.24l-4.284-.008Zm-3.506-2.83a3.756 3.756 0 0 0 1.73-.403 2.7 2.7 0 0 0 1.175-1.08v-2.628h-1.59c-2.124 0-3.254.706-3.388 2.119l-.015.24c-.007.236.04.47.135.688.096.217.24.412.42.571a2.22 2.22 0 0 0 1.533.492ZM77.013 14.084a5.264 5.264 0 0 1 1.884-1.448 5.463 5.463 0 0 1 2.355-.494c3.444 0 5.189 1.93 5.237 5.789v9.794h-4.24v-9.699c0-.868-.194-1.522-.585-1.942-.39-.42-1.043-.628-1.953-.628-1.24 0-2.141.461-2.704 1.384v10.868H72.79V6h4.24l-.016 8.084ZM89.66 8.459a1.96 1.96 0 0 1 .152-.822c.11-.26.275-.496.484-.692a2.817 2.817 0 0 1 1.735-.593c.632 0 1.245.209 1.735.593.416.404.65.95.65 1.52a2.12 2.12 0 0 1-.65 1.519 2.787 2.787 0 0 1-1.724.593c-.63 0-1.238-.21-1.725-.593a2.007 2.007 0 0 1-.5-.694 1.94 1.94 0 0 1-.158-.831Zm4.506 19.247h-4.251V12.43h4.254l-.003 15.276ZM104.254 24.698a2.851 2.851 0 0 0 1.907-.622c.243-.207.436-.461.568-.746.132-.285.198-.595.196-.906h3.974a5.09 5.09 0 0 1-.88 2.848 5.765 5.765 0 0 1-2.367 2.005 7.68 7.68 0 0 1-3.317.715c-2.272 0-4.061-.695-5.37-2.087-1.307-1.39-1.963-3.31-1.967-5.757v-.269c0-2.356.651-4.235 1.953-5.638 1.302-1.403 3.084-2.102 5.348-2.098 1.987 0 3.578.544 4.774 1.632 1.195 1.088 1.804 2.536 1.826 4.342h-3.974a2.76 2.76 0 0 0-.764-1.94 2.863 2.863 0 0 0-.995-.587 2.942 2.942 0 0 0-2.28.158 2.833 2.833 0 0 0-.898.719c-.504.695-.757 1.82-.757 3.375v.425c0 1.577.25 2.71.748 3.398.499.69 1.259 1.034 2.275 1.034ZM112.662 19.92a8.78 8.78 0 0 1 .901-4.052 6.524 6.524 0 0 1 2.617-2.756 7.869 7.869 0 0 1 3.978-.97c2.143 0 3.892.632 5.246 1.894 1.354 1.262 2.109 2.977 2.265 5.146l.03 1.045c0 2.348-.68 4.23-2.04 5.647-1.36 1.416-3.184 2.125-5.471 2.127-2.289 0-4.116-.707-5.48-2.121-1.364-1.415-2.046-3.337-2.046-5.766v-.194Zm4.239.29c0 1.452.284 2.563.85 3.33.285.36.65.65 1.07.85a3.147 3.147 0 0 0 2.699.008c.42-.198.788-.486 1.074-.843.577-.758.866-1.973.866-3.644 0-1.424-.289-2.527-.866-3.31a2.781 2.781 0 0 0-1.06-.891 2.91 2.91 0 0 0-1.376-.285c-.47-.02-.937.076-1.357.279a2.742 2.742 0 0 0-1.047.879c-.566.787-.851 1.997-.853 3.63v-.004ZM130.278 8.459a1.969 1.969 0 0 1 .155-.822c.11-.26.275-.496.485-.692a2.818 2.818 0 0 1 1.735-.593c.632 0 1.245.209 1.735.593.415.405.648.95.648 1.52 0 .568-.233 1.114-.648 1.519a2.768 2.768 0 0 1-1.723.597 2.768 2.768 0 0 1-1.723-.597 1.999 1.999 0 0 1-.502-.694 1.938 1.938 0 0 1-.162-.831Zm4.507 19.247h-4.257V12.43h4.254l.003 15.276ZM142.188 12.433l.133 1.765a5.504 5.504 0 0 1 2.019-1.552 5.725 5.725 0 0 1 2.529-.503c1.683 0 2.935.476 3.756 1.427.821.951 1.242 2.375 1.262 4.27v9.878h-4.24v-9.786c0-.868-.198-1.496-.6-1.887-.403-.39-1.04-.579-1.95-.579a3.01 3.01 0 0 0-1.561.364 2.86 2.86 0 0 0-1.125 1.103v10.785h-4.227V12.433h4.004Z" fill="#1554F0"></path><path fill-rule="evenodd" clip-rule="evenodd" d="M17.214 34c9.507 0 17.214-7.611 17.214-17S26.721 0 17.214 0C7.707 0 0 7.611 0 17s7.707 17 17.214 17Zm-7.51-5.899a13.64 13.64 0 0 0 17.066-1.663A13.282 13.282 0 0 0 30.735 17a13.234 13.234 0 0 0-3.372-8.823l-1.659 1.637a10.978 10.978 0 0 1 2.697 7.186c0 2.185-.656 4.321-1.885 6.138a11.157 11.157 0 0 1-5.02 4.068 11.316 11.316 0 0 1-6.463.629 11.244 11.244 0 0 1-5.098-2.447l-1.654 1.633c.448.389.923.75 1.423 1.08Zm-2.638-2.28a13.328 13.328 0 0 1-2.342-3.712 13.198 13.198 0 0 1-.769-7.714 13.301 13.301 0 0 1 3.7-6.836 13.573 13.573 0 0 1 6.923-3.654 13.678 13.678 0 0 1 7.812.76 13.548 13.548 0 0 1 3.757 2.312l-1.659 1.638a11.282 11.282 0 0 0-13.487-.799 11.077 11.077 0 0 0-4.12 4.958 10.92 10.92 0 0 0-.637 6.383 10.992 10.992 0 0 0 2.476 5.031l-1.654 1.633Zm12.358-6.373c.096.203.14.427.127.651a1.255 1.255 0 0 1-.549 1.088c-.36.26-.863.389-1.51.389-1.739-.001-2.608-.72-2.608-2.159h-2.73a3.83 3.83 0 0 0 .657 2.221 4.372 4.372 0 0 0 1.91 1.51 6.817 6.817 0 0 0 2.775.55c1.465.002 2.629-.32 3.493-.962.864-.642 1.296-1.528 1.296-2.656a3.368 3.368 0 0 0-.26-1.383 3.403 3.403 0 0 0-.802-1.161c-.707-.682-1.835-1.252-3.382-1.711-.841-.25-1.478-.518-1.91-.806-.432-.287-.648-.643-.648-1.067a1.3 1.3 0 0 1 .55-1.097c.368-.277.885-.416 1.55-.416.687 0 1.22.166 1.601.498.381.332.571.796.571 1.394h2.721a3.695 3.695 0 0 0-.612-2.096 3.994 3.994 0 0 0-1.719-1.43 5.991 5.991 0 0 0-2.52-.505 6.595 6.595 0 0 0-2.536.465c-.689.262-1.29.71-1.732 1.295a3.12 3.12 0 0 0-.603 1.885c0 1.356.75 2.434 2.249 3.234.719.36 1.468.659 2.24.89.94.303 1.593.59 1.96.862.18.135.325.313.42.517Z" fill="#1554F0"></path></svg>