<?xml version="1.0" encoding="utf-8"?>
<!-- Generator: Adobe Illustrator 26.0.1, SVG Export Plug-In . SVG Version: 6.00 Build 0)  -->
<svg version="1.1" id="Layer_1" xmlns="http://www.w3.org/2000/svg" xmlns:xlink="http://www.w3.org/1999/xlink" x="0px" y="0px"
	 viewBox="0 0 1604 686" style="enable-background:new 0 0 1604 686;" xml:space="preserve">
<style type="text/css">
	.st0{fill-rule:evenodd;clip-rule:evenodd;fill:#006BB1;}
	.st1{fill-rule:evenodd;clip-rule:evenodd;fill:#007BB3;}
	.st2{fill-rule:evenodd;clip-rule:evenodd;fill:#09B7E1;}
	.st3{fill-rule:evenodd;clip-rule:evenodd;fill:#3F3F41;}
	.st4{fill-rule:evenodd;clip-rule:evenodd;fill:#515151;}
	.st5{opacity:0.8;fill:none;stroke:#000000;stroke-width:5.3;enable-background:new    ;}
</style>
<g>
	<path id="Layer" class="st0" d="M117.8,425.6v33H0.1V254.1h113.2V287H40.5v49.5h68.6v32.2H40.5v56.9H117.8z M147.5,320
		c10.1-5.8,29-12.5,52.9-12.5c47.4,0,60.1,29.3,60.1,61.7v54.3c0,13,0.6,26.1,2.2,35.1h-36.5l-2.4-15.4H223
		c-8.5,11.7-23.4,18.4-40.4,18.4c-28.1,0-45.7-20.5-45.7-44.5c0-38,34.8-55.8,83.2-55.8c0-14.7-5.3-25.8-27.4-25.8
		c-13.8,0-27.6,4.2-37.4,10.1L147.5,320z M221.1,386.5c-22.1,0-44.7,5-44.7,26.6c0,14.1,9.1,20.2,19.2,20.2
		c9.5,0,25.5-6.7,25.5-25.5V386.5z M295.3,422.9c7.9,4.5,23.1,9.8,35.6,9.8c14.1,0,21-5.8,21-14.9c0-9-5.1-13.8-21.8-20.7
		c-28.5-11.2-38.8-26.9-38.8-43.1c0-26.6,21.8-46.8,55.8-46.8c15.7,0,29,3.7,37.7,8.2l-7.7,27.7c-6.6-3.5-17.2-7.7-28.7-7.7
		c-12.2,0-18.8,6.1-18.8,14.1c0,8.2,5.5,12.5,23.1,19.7c25.8,10.3,37.7,24.7,37.7,45.2c0,28.2-22,46.8-60.1,46.8
		c-16.7,0-32.9-4-43-9.8L295.3,422.9z M447.9,396.3c1,25.2,19.6,35.3,41.4,35.3c15.2,0,26.9-2.6,37.3-6.1l5.8,27.2
		c-12.5,5.3-30.3,8.5-49.2,8.5c-47,0-73.9-28.8-73.9-74.8c0-42.5,25.3-79.3,69.9-79.3c37,0,61.2,25.6,61.2,73.5
		c0,5.8-0.3,11.4-1.1,15.7H447.9z M503,368.9c0.2-15.5-6.2-34.4-26.1-34.4c-19.4,0-27.6,19.7-28.7,34.4H503z M762.4,253.9l12,204.6
		h-38.5l-4-79.5c-1.1-26.9-2.4-59.9-2.2-80.6H729c-6.2,24.4-13.6,51.6-20.8,74.4l-25.8,82.8h-30.5l-23.2-81.4
		c-6.9-23.2-13.3-50.8-18.3-75.8h-0.8c-0.5,25.8-1.9,56.1-3.2,81.4l-4,78.7h-36.9l14.1-204.6h49.9l22.6,76.9
		c6.9,24.8,13,48.7,17.6,72.1h0.8c5-22.9,11.1-47.6,18.3-72.1l23.9-76.9L762.4,253.9z M891.9,310.3h42.3l-34.6,103
		c-17,47.9-29.8,73.9-47,90.7c-14.7,13.8-30.4,19.2-39.4,20.7l-10.1-33.2c6.4-1.9,14.1-6.1,21.3-10.9c13.3-9.3,20.2-24.5,20.2-27.4
		c0-1.6-0.6-3.7-1.6-6.7l-51.3-136.2h44.4l22.3,77.4c2.4,9.1,5.3,19.5,7.2,27.7h0.8c1.8-8,4.2-18.3,6.4-27.7L891.9,310.3z
		 M1083,253.9V288h-52.1v170.5h-40.4V288h-51.9v-34.1H1083z M1141,336.2c7.2-19.2,23.7-29,37.7-29c3.8,0,6.4,0.2,9.1,0.8v37.5
		c-2.9-0.5-6.4-0.8-10.4-0.8c-18.3,0-32.4,11.9-32.4,37.2v76.6h-40.4V356.6c0-18.3-0.6-33-1.1-46.3h34.8l1.6,25.9L1141,336.2z
		 M1230.5,290.9c-12,0-21.7-9.4-21.7-21s9.7-21,21.7-21s21.7,9.4,21.7,21S1242.5,290.9,1230.5,290.9z M1210.4,310.3h40.4v148.2
		h-40.4V310.3z M1323.4,330.5h0.5c9.9-15.1,25.6-23.4,45.2-23.4c33.3,0,58,30.4,58,75.8c0,54.6-31.9,78.5-62.8,78.5
		c-16.7,0-29.5-7.4-36.1-17.3h-0.5v73.7h-40.5V358.7c0-19.1-0.5-34.8-1-48.4h35.3L1323.4,330.5z M1327.7,398.6
		c0,21.6,13.3,31.9,27.1,31.9c20.5,0,31.1-19.6,31.1-46.2c0-26.4-10.4-45.5-30.3-45.5c-15.7,0-27.9,14.3-27.9,32.2L1327.7,398.6z"/>
	<path id="Layer_00000170966446715533527760000006775622719254718613_" class="st1" d="M261.9,329.6
		C373.3,110.9,677.7,278,846.5,132.2C678.5,303,345.1,158.8,261.9,329.6L261.9,329.6z"/>
	<path id="Layer_00000144299841731719043330000011325521323905581718_" class="st2" d="M655.6,0.5l395.1,31.7
		c19.4,1.3,16.2,4.8,6.6,13.6L864.6,229.3c-10.9,11.7-13.3,8.3-26.1-5.3L763,141c-10.1-10.1-11.7-12.2,5.6-18.4L956,63.8
		l-210.8,36.8c-15.9,3.1-13.8,5.5-25-9.9l-70.4-78.2C641.3,3.2,641.8-1.6,655.6,0.5L655.6,0.5z"/>
	<path id="Layer_00000134209150157705350550000010406199297654464670_" class="st1" d="M769.4,136.2l20.5,21.3
		c9.8,10.4,7.1,10.9-4,17.5l-65.2,29.6c-7.7,4.5-12.4,0.8-7.1-7.7l41.2-64.4C758.5,124.5,762.8,128.8,769.4,136.2z"/>
	<path id="Layer_00000067950043833433229830000012176765538764889489_" class="st3" d="M1373.6,515c-1-1-1.5-2.1-1.5-3.7
		c0-1.3,0.2-2.9,1-4.3c0.5-1.3,1.6-2.1,3.5-2.1c1.6,0,2.6,0.5,4,1.6c1.3,1.1,1.8,2.4,1.8,3.7c0,1.9-0.2,3.2-0.8,4.6
		c-0.5,1.3-1.8,1.8-4,1.8C1376.3,516.6,1375,516.4,1373.6,515z M1411.1,518.5c-1.8-0.8-3.2-1.6-4.5-2.9c-2.4-2.2-4-4.8-5-8
		c-1.1-3-1.6-6.4-1.6-9.6c0-2.7,0.2-5.1,0.8-7.5c0.5-2.3,1.3-4.7,2.1-7.1c0.8-2.2,1.8-4.6,3.2-6.4c1-1.9,2.6-3.7,4-5.1
		c1.8-1.8,4-3.4,6.3-4.5c2.4-1.1,5.1-1.6,7.8-1.6c3.1,0,5.8,0.8,7.7,2.4c2.1,1.6,2.9,4,2.9,7.4c0,1.4-0.3,3.2-0.5,5.1
		c-0.3,1.9-1.1,3.5-2.4,4.5c-1.1,0.8-2.2,1.4-3.5,1.4c-0.8,0-1.3-0.6-1.3-1.4s0.5-2.1,1.3-3.4c0.8-1.4,1.1-3,1.1-5.1
		c0-1.3-0.3-2.4-0.6-3.4c-0.2-1.1-1-1.6-2.6-1.6c-1.3,0-2.4,0.2-3.5,0.8c-1,0.5-1.8,1.3-2.9,2.1c-1.1,1.3-2.1,2.6-3.2,4.5
		s-2.1,4-2.9,6.1c-0.8,2.2-1.6,4.5-2.1,6.9c-0.5,2.7-0.8,5.1-0.8,7.2c0,2.4,0.2,4.3,0.8,6.1c0.5,1.9,1.6,3.2,2.9,4.6
		c1.6,1.8,3.7,2.6,6.6,2.6c3,0,5.6-0.5,8.3-1.6c2.4-1,5-2.1,7.1-4c2.2-1.8,4.3-3.7,6.2-5.8c1.8-2.1,3.4-4.3,4.7-6.7
		c0.3-0.5,0.8-1.3,1.6-2.1c0.2-0.2,0.4-0.4,0.6-0.5c0.1-0.3,0.1-0.7,0.2-1.1c1.4-4,3-7.7,5.1-10.9c2.1-3.5,4.8-6.1,7.7-8.2
		c2.9-2.2,6.4-3.2,9.8-3.2c1.9,0,3.8,0.5,5.4,1.3c1.3,1.1,2.6,2.1,3.7,3.7c1,1.6,1.8,3.2,2.4,5.3c0.5,1.9,0.8,4,0.8,6.4
		c0,5.3-0.6,10.1-2.2,14.4c-1.6,4.2-3.4,7.7-5.8,10.6c-2.1,3-4.8,5.1-7.7,6.7c-2.7,1.3-5.6,2.1-8.3,2.1c-3.4,0-6.3-1.3-8.7-4
		c-2.4-2.8-3.7-6.7-3.8-12.4c-0.7,0.9-1.4,1.7-2.1,2.6c-2.6,2.9-5.3,5.3-8.5,7.4c-2.9,2.2-6.1,3.8-9.8,5.1
		c-3.7,1.3-7.5,1.8-11.2,1.8C1414.3,519.5,1412.5,519.3,1411.1,518.5L1411.1,518.5z M1467,479.4c-1.6,1.6-3.2,3.7-4.6,6.1
		c-1.3,2.7-2.4,5.3-3.2,8.2c-0.8,3-1.3,5.6-1.3,8.3c0,3.7,0.5,6.4,1.9,8c1.3,1.8,2.9,2.6,4.8,2.6c1.6,0,3.2-0.8,5-1.8
		c1.9-1.1,3.5-2.7,5.1-4.8c1.6-2.2,2.9-4.8,3.7-7.7c0.8-3,1.3-6.7,1.3-10.4c-0.3-2.9-0.8-5.6-1.8-7.7c-1.1-2.2-3-3.2-5.1-3.2
		S1468.8,477.8,1467,479.4L1467,479.4z M1531.8,513.7c-0.5-1.1-1-2.9-1.3-4.8c-0.3-2.1-0.5-4.3-0.8-6.6c0-2.4-0.3-4.8-0.3-7.2
		c0-2.4,0-14.1,0-16.3c0-0.2-0.2-0.8-0.2-1.6c-0.3-0.8-0.6-1-1.4-1s-1.8,0.8-3.4,2.4c-1.4,1.3-2.9,3.4-4.8,5.8
		c-1.9,2.7-3.7,5.3-5.6,8.3c-1.9,2.9-3.7,5.8-5.3,8.5c-1.6,2.6-2.9,5-4.3,7.4c-1.1,2.1-1.9,3.7-2.4,4.8c-0.5,1.1-1,1.9-1.8,2.7
		c-0.8,1-1.6,1.3-2.9,1.3c-0.8,0-1.6-0.3-1.9-0.8c-0.5-0.5-0.8-1-0.8-1.8c0-1.6,0.3-3.8,0.5-6.4c0.3-3,0.8-5.9,1.4-9.3
		c0.5-3.5,1.3-7,2.1-10.7c0.8-3.4,1.6-7.2,2.4-10.4c0.8-3.4,1.6-6.3,2.4-8.7c0.8-2.7,1.3-4.3,1.8-5.4c1.1-1.6,2.4-2.9,4.6-3.7
		c2.1-0.8,3.9-1.3,5.8-1.3c1.1,0,1.6,0.3,2.1,0.8c0.6,0.5,0.8,1.3,0.8,2.1c0,1.1-0.2,1.9-0.5,3.2c-0.5,1.3-0.8,2.4-1.3,3.7
		c-0.6,1.1-1.1,2.4-1.6,3.5c-0.6,1.3-1.1,2.4-1.4,3.2c-1.1,2.4-1.9,4.8-2.4,7.2c-0.5,2.6-1,5-1.5,7.4c0.8-1.3,2.1-3.2,3.7-5.6
		c1.9-2.4,3.7-4.8,5.6-7.2c2.1-2.6,3.9-4.5,6.1-6.3c1.8-1.9,4-2.7,5.6-2.7c1.3,0,2.1,0.3,2.9,1.1c0.5,0.5,1.3,1.6,1.6,2.6
		c0.5,1.1,0.5,2.4,0.8,3.5c0.2,1.3,0.2,2.4,0.2,3.2c0,2.6-0.2,5-0.2,7.4c-0.3,2.7-0.3,5.1-0.3,7.5v2.1c0,1.1,0.3,1.9,0.3,2.9
		c0,1.1,0,1.9,0.2,2.7c0,0.8,0.3,1.1,0.6,1.1c0.2,0,0.8-0.3,1-1.1c0.3-0.8,0.6-1.1,0.8-1.3c1.6-2.7,3.2-5.1,5.1-7.5
		c1.8-2.7,3.4-5,5.3-7.4c1.1-1.9,2.7-4,4-5.9c1.3-2.1,2.9-4,4.5-5.6c1.3-1.3,2.9-2.7,4.8-4c1.9-1,4-1.8,5.8-1.8c1.4,0,2.7,0.2,3.8,1
		c1.1,0.5,1.9,1.3,2.4,2.4c0.5,1.1,1,2.2,1.3,3.5c0.2,1.3,0.5,2.4,0.5,3.7c0,5.1-0.3,9.6-0.8,14.4c-0.5,4.8-0.8,9.6-0.8,14.3v2.4
		c0,0.8,0,1.6,0.3,2.4s0.5,1.6,1,2.2c0.6,0.5,1.1,0.8,2.2,0.8c1.6,0,3.2-0.8,5-1.9c1.9-1.1,3.7-2.4,5.6-4c1.9-1.6,3.5-3.2,5.1-5.1
		c1.6-1.8,2.6-3.1,3.4-4.2c0.3-0.5,0.8-1.3,1.6-2.1c0.8-1.1,1.6-1.4,2.4-1.4c0.8,0,1.3,0.3,1.6,0.8c0,0.6,0.3,1.1,0.3,1.9
		c0,0.5-0.3,0.8-0.6,1.3c-0.2,0.6-0.5,1.1-0.8,1.4c-1.3,1.5-3.2,3.4-5.3,5.8c-2.4,2.4-4.5,4.5-7.2,6.7c-2.4,2.1-5,3.9-7.7,5.3
		c-2.6,1.3-5,2.1-7.4,2.1c-2.1,0-3.7-0.5-5.1-1.9c-1-1-2.1-2.4-2.6-4.2c-0.6-1.9-0.8-3.7-1.1-5.6c-0.3-2.1-0.3-3.7-0.3-5.3
		c0-3.7,0-7.5,0.6-11.2c0.2-3.7,0.5-7.4,0.5-11.2v-1.6c0-0.5-0.3-1.3-0.3-1.8c-0.3-0.5-0.5-1.1-0.8-1.6c-0.2-0.6-0.7-0.8-1.3-0.8
		c-0.8,0-2.1,0.8-3.7,2.4c-1.6,1.3-3.2,3.4-5.1,5.8c-1.8,2.7-3.7,5.3-5.5,8.3c-1.9,2.9-3.8,5.8-5.4,8.5c-1.8,2.9-3.1,5.3-4.5,7.7
		c-1.3,2.4-2.4,4-2.9,5.1c-0.5,0.5-1.1,1.1-1.6,1.6c-0.5,0.2-1.3,0.5-2.1,0.5C1531.8,516.1,1531,515.3,1531.8,513.7L1531.8,513.7z"
		/>
	<g id="Layer_00000140736001971393614220000015072926471328801453_">
		<path id="Layer_00000091703391075257285420000009206645408273425810_" class="st4" d="M41.3,574.3H11.5l1.9-9.8h71.2l-1.9,9.8H53
			l-15.2,80.6H26.1L41.3,574.3z M123.7,654.7c0,0.1,0,0.2,0,0.3V654.7z M125.3,636.6h-0.2c-7.2,14.3-17.3,19.9-28,19.9
			c-12.7,0-20.7-10.1-20.7-22.6c0-23.7,18.6-45.5,47.9-45.5c6.9,0,14.3,1.1,19.4,2.7l-6.4,32.4c-2.4,12.3-3.2,24-2.7,31.2h-10.9
			C123.7,650.6,124.3,643.9,125.3,636.6L125.3,636.6z M130.6,598.5c-1.6-0.5-4.5-1-9-1c-17.5,0-33.2,15.4-33.2,34.5
			c0,7,2.9,14.9,12.7,14.9c10.1,0,22.4-11.9,25.8-30.6L130.6,598.5z M158.8,654.7v0.2V654.7z M177.1,559h11.7l-11.7,60.9h0.3
			c2.1-2.4,4.8-4.8,6.6-6.7l25-23.1h14.7l-30.6,26.3l21.5,38.3h-13L184,622.8l-9.3,7.7l-4.5,24.2h-11.4L177.1,559z M278.4,651.1
			c-5,2.9-13.8,5.6-23.4,5.6c-18.3,0-26.8-12.3-26.8-27.2c0-20.2,15.9-40.9,37.7-40.9c13.3,0,21,7.4,21,17.3c0,17.5-21,21.2-47,20.4
			c-0.5,3.2,0,8.8,1.6,12c2.9,5.9,8.7,8.8,15.9,8.8c8.5,0,15.2-2.4,19.4-4.8L278.4,651.1z M264.1,597.4c-12.3,0-20.8,11.4-23.1,20.2
			c19.9,0.3,34.5-1.6,34.5-11.7C275.5,600.3,270.7,597.4,264.1,597.4z M331.6,655.1l12.5-64.9h11.7l-12.5,64.9H331.6z M353.7,578.8
			c-4.2,0-7.5-3.4-7.5-7.5s3.3-7.4,7.5-7.4c4.1,0,7.4,3.3,7.4,7.4C361.1,575.4,357.8,578.8,353.7,578.8z M400.2,572.6l-3.2,17.6
			h16.5l-1.9,9h-16.5l-5.5,29.8c-0.8,3.8-1.4,7.2-1.4,11.2s2.1,6.7,6.7,6.7c2.1,0,4.2-0.3,5.5-0.6l-0.5,9.1c-1.8,0.8-5.6,1.3-9,1.3
			c-10.7,0-14.6-6.7-14.6-13.3c0-4.3,0.5-8.3,1.6-12.8l6.1-31.4h-9.9l1.9-9h9.8l2.7-14.9L400.2,572.6z M510,612.8h-36.4l-6.2,32.4
			h41l-1.9,9.9h-52.3l17.2-90.5h50.3l-1.9,9.9h-38.5l-5.3,28.4h36.4L510,612.8z M575.1,655.1c0-4,0.5-10.9,1.6-18.3h-0.3
			c-7.1,14.3-17.2,19.9-27.9,19.9c-12.7,0-20.7-10.1-20.7-22.6c0-23.7,18.6-45.5,47.8-45.5c6.9,0,14.4,1.1,19.4,2.7l-6.3,32.7
			c-2.4,12.2-3.2,23.9-2.7,31.1L575.1,655.1z M582,598.7c-1.6-0.5-4.5-1-9-1c-17.6,0-33.3,15.4-33.3,34.5c0,7,3,14.9,12.8,14.9
			c10.1,0,22.3-11.9,25.8-30.6L582,598.7z M610.7,643.4c3.5,2.2,9.6,4.3,15.2,4.3c7.7,0,13-4.8,13-10.4c0-4.8-2.1-8-9.9-11.7
			c-8.5-4.3-12.7-9.8-12.7-16.7c0-11.5,10.4-20.3,24.7-20.3c6.4,0,12,1.9,14.6,3.5l-3.2,8.8c-2.4-1.4-6.9-3.2-12.5-3.2
			c-6.9,0-11.9,4.2-11.9,9.6c0,4.7,3.2,7.4,9.8,10.9c8,4,13,9.5,13,17c0,13.6-11.7,21.5-26,21.5c-7.7,0-14.1-2.4-17.6-4.8
			L610.7,643.4z M682.5,590.2l8,34.4c1.9,7.9,2.9,13,3.7,17.3h0.3c1.6-3.8,3.7-8,7.2-15.7l17.5-36.2h12.5l-25.3,48.1
			c-7.1,13.9-13.8,25-22.5,34.3c-8.3,8.6-17.6,12-21.8,12.8l-2.4-10.1c2.6-0.8,7.9-2.7,12.5-6.1c4.5-3.5,9.3-8.5,13.2-15.2
			c0.6-1,0.6-1.6,0.3-2.6l-15.4-61H682.5z"/>
	</g>
	<path id="Layer_00000157282269021863356900000000861892009364841380_" class="st5" d="M1600.1,637.9l-820.3,8"/>
</g>
</svg>
